<?xml version="1.0" encoding="UTF-8" standalone="no"?>
<!DOCTYPE svg PUBLIC "-//W3C//DTD SVG 1.1//EN"
 "http://www.w3.org/Graphics/SVG/1.1/DTD/svg11.dtd">
<!-- Generated by graphviz version 9.0.0 (20231125.0833)
 -->
<!-- Pages: 1 -->
<svg width="205pt" height="44pt"
 viewBox="0.00 0.00 205.00 44.00" xmlns="http://www.w3.org/2000/svg" xmlns:xlink="http://www.w3.org/1999/xlink">
<g id="graph0" class="graph" transform="scale(1 1) rotate(0) translate(4 40)">
<polygon fill="white" stroke="none" points="-4,4 -4,-40 201,-40 201,4 -4,4"/>
<!-- Snippet1 -->
<g id="node1" class="node">
<title>Snippet1</title>
<g id="a_node1"><a xlink:href="snippet1.md" xlink:title="Snippet1">
<polygon fill="none" stroke="black" points="74.5,-36 0,-36 0,0 80.5,0 80.5,-30 74.5,-36"/>
<polyline fill="none" stroke="black" points="74.5,-36 74.5,-30"/>
<polyline fill="none" stroke="black" points="80.5,-30 74.5,-30"/>
<text text-anchor="middle" x="40.25" y="-13.32" font-family="Times,serif" font-size="14.00">Snippet1</text>
</a>
</g>
</g>
<!-- Snippet2 -->
<g id="node2" class="node">
<title>Snippet2</title>
<g id="a_node2"><a xlink:href="snippet2.txt" xlink:title="Snippet2">
<polygon fill="none" stroke="black" points="197,-36 194,-40 173,-40 170,-36 116.5,-36 116.5,0 197,0 197,-36"/>
<text text-anchor="middle" x="156.75" y="-13.32" font-family="Times,serif" font-size="14.00">Snippet2</text>
</a>
</g>
</g>
<!-- Snippet1&#45;&gt;Snippet2 -->
<g id="edge1" class="edge">
<title>Snippet1&#45;&gt;Snippet2</title>
<g id="a_edge1"><a xlink:href="grp.py">
<path fill="none" stroke="black" d="M80.98,-11.54C88.61,-11.28 96.71,-11.19 104.65,-11.28"/>
<polygon fill="black" stroke="black" points="104.51,-14.78 114.58,-11.51 104.66,-7.78 104.51,-14.78"/>
</a>
</g>
</g>
<!-- Snippet1&#45;&gt;Snippet2 -->
<g id="edge2" class="edge">
<title>Snippet1&#45;&gt;Snippet2</title>
<g id="a_edge2"><a xlink:href="grp.py">
<path fill="none" stroke="black" d="M80.98,-24.46C88.61,-24.72 96.71,-24.81 104.65,-24.72"/>
<polygon fill="black" stroke="black" points="104.66,-28.22 114.58,-24.49 104.51,-21.22 104.66,-28.22"/>
</a>
</g>
</g>
</g>
</svg>
